# Blender v2.80 (sub 75) OBJ File: ''
# www.blender.org
o Cube
v 0.269107 0.203998 -0.214991
v 0.269107 -0.203998 -0.214991
v 0.269107 0.203998 0.214991
v 0.269107 -0.203998 0.214991
v -0.269107 0.203998 -0.214991
v -0.269107 -0.203998 -0.214991
v -0.269107 0.203998 0.214991
v -0.269107 -0.203998 0.214991
v 0.269107 0.523794 0.214991
v -0.269107 0.523794 0.214991
v 0.269107 0.523794 -0.214991
v -0.269107 0.523794 -0.214991
v -0.269107 -0.203998 0.434838
v -0.269107 0.203998 0.434838
v 0.269107 0.203998 0.434838
v 0.269107 -0.203998 0.434838
v 0.671439 0.203998 -0.214991
v 0.671439 -0.203998 -0.214991
v 0.671439 0.203998 0.214991
v 0.671439 -0.203998 0.214991
v -0.573095 -0.051378 0.934962
v -0.573095 0.356617 0.934962
v -0.034881 0.356617 0.934962
v -0.034881 -0.051378 0.934962
v 1.138739 0.203998 0.963423
v 1.138739 -0.203998 0.963423
v 0.834751 0.356617 1.463547
v 0.834751 -0.051378 1.463547
v 0.312234 0.892056 -0.336563
v -0.225979 0.892056 -0.336563
v 0.312234 0.892056 -0.766544
v -0.225979 0.892056 -0.766544
v -0.018963 0.688821 0.663781
v -0.557176 0.688821 0.663781
v 0.024165 1.057082 0.112227
v -0.514049 1.057082 0.112227
v 0.657573 0.174242 -0.663639
v 0.657573 0.174242 -0.233658
v 0.700700 0.542504 -1.215193
v 0.700700 0.542504 -0.785211
v 1.612507 0.062409 -0.663639
v 1.612507 0.062409 -0.233658
v 1.655635 0.430670 -1.215193
v 1.655635 0.430670 -0.785211
v 0.731812 0.808163 0.195404
v 0.774939 1.176425 -0.356150
v 1.686746 0.696330 0.195404
v 1.729874 1.064591 -0.356150
v 0.775151 1.178230 0.445879
v 0.818278 1.546492 -0.105675
v 1.730085 1.066396 0.445879
v 1.773213 1.434658 -0.105675
v -0.018963 1.270951 1.052458
v -0.557176 1.270951 1.052458
v 0.024165 1.639213 0.500904
v -0.514049 1.639213 0.500904
v 0.182997 0.681528 0.674703
v 0.226125 1.049790 0.123149
v 0.182997 1.263659 1.063380
v 0.226125 1.631920 0.511826
v 2.156797 -0.001334 -0.233658
v 2.199925 0.366928 -0.785211
v 2.231037 0.632587 0.195404
v 2.274164 1.000849 -0.356150
v 0.218679 0.461333 0.231822
v -0.319535 0.461333 0.231822
v -0.085310 0.613953 0.731946
v -0.623523 0.613953 0.731946
v 0.218679 0.461333 0.231822
v -0.319535 0.461333 0.231822
v -0.085310 0.613953 0.731946
v -0.623523 0.613953 0.731946
v -0.170826 -0.050953 1.745107
v -0.709040 -0.050953 1.745107
v -0.221254 0.206382 1.542092
v -0.759468 0.206382 1.542092
v -0.327380 0.863281 0.972683
v -0.865593 0.863281 0.972683
v -0.463324 0.455711 1.782829
v -1.001538 0.455711 1.782829
v 1.249815 0.203998 -0.214991
v 1.249815 -0.203998 -0.214991
v 1.249815 0.203998 0.214991
v 1.249815 -0.203998 0.214991
v 1.407259 0.203998 -0.214991
v 1.407259 -0.203998 -0.214991
v 1.407259 0.203998 0.214991
v 1.407259 -0.203998 0.214991
v 1.692769 0.203998 -0.214991
v 1.692769 -0.203998 -0.214991
v 1.692769 0.203998 0.214991
v 1.692769 -0.203998 0.214991
v 0.742393 -0.387928 0.783945
v 0.742393 -0.795924 0.783945
v 1.320769 -0.387928 0.783945
v 1.320769 -0.795924 0.783945
v 0.742393 -0.387928 0.783945
v 0.742393 -0.795924 0.783945
v 1.320769 -0.387928 0.783945
v 1.320769 -0.795924 0.783945
v 0.495505 -0.294973 1.228333
v 1.073881 -0.294973 1.228333
v 0.566459 -0.886900 1.797287
v 1.144835 -0.886900 1.797287
v 0.465787 -0.757756 1.866031
v 1.044163 -0.757756 1.866031
v 0.536741 -1.349682 2.434985
v 1.115117 -1.349682 2.434985
v 0.277559 0.134902 1.191914
v 0.855935 0.134902 1.191914
v 0.247841 -0.327881 1.829613
v 0.826217 -0.327881 1.829613
v 0.106172 -0.555170 2.430509
v 0.684548 -0.555170 2.430509
v -0.111775 -0.125295 2.394091
v 0.466602 -0.125295 2.394091
v 0.187126 -0.039487 1.611604
v 0.765502 -0.039487 1.611604
v -0.172489 0.163099 2.176082
v 0.405887 0.163099 2.176082
vn 0.0000 0.0000 -1.0000
vn 0.0000 -1.0000 0.0000
vn -1.0000 0.0000 0.0000
vn 0.0000 0.0000 1.0000
vn 0.0000 -0.9386 0.3451
vn 1.0000 0.0000 0.0000
vn 0.0000 -0.9565 0.2919
vn 0.0000 1.0000 0.0000
vn 0.5194 0.0000 -0.8545
vn -0.8188 -0.4458 -0.3617
vn -0.8545 0.0000 -0.5194
vn 0.8545 0.0000 0.5194
vn -0.5194 0.0000 0.8545
vn 0.1311 0.9676 -0.2156
vn -0.1311 -0.9676 0.2156
vn 0.0000 -0.8317 -0.5553
vn 0.8188 0.4458 0.3617
vn -0.9932 0.1163 0.0000
vn -0.9979 0.0360 -0.0540
vn 0.0000 0.9386 -0.3451
vn -0.0965 -0.8243 -0.5579
vn -0.6689 -0.7434 0.0000
vn 0.6689 0.7434 0.0000
vn 0.9932 -0.1163 0.0000
vn -0.1163 -0.9932 0.0000
vn 0.1163 0.9932 0.0000
vn 0.0649 0.5541 -0.8299
vn -0.0649 -0.5541 0.8299
vn 0.0965 0.8243 0.5579
vn 0.0000 0.8317 0.5553
vn 0.0000 0.5553 -0.8317
vn 0.0000 -0.5553 0.8317
vn 0.9979 -0.0360 0.0540
vn 0.0000 -0.6194 -0.7851
vn 0.0000 0.9565 -0.2919
vn 0.0000 0.6194 0.7851
vn 0.0000 -0.8933 -0.4494
vn 0.0000 0.8933 0.4494
vn 0.0000 0.6946 -0.7194
vn 0.0000 -0.6946 0.7194
vn 0.0000 -0.6930 -0.7210
vn -0.9923 0.0000 0.1238
vn 0.9923 0.0000 -0.1238
vn 0.0000 0.8971 0.4418
vn 0.0000 -0.8971 -0.4418
vn 0.0000 0.6930 0.7210
vn 0.0000 -0.8093 -0.5873
vn 0.0000 0.8093 0.5873
vn 0.0000 -0.0844 -0.9964
vn 0.0000 0.0844 0.9964
vn 0.0000 -0.9412 0.3378
vn 0.0000 0.6030 0.7977
vn 0.0000 0.9412 -0.3378
vn 0.0000 -0.6030 -0.7977
s off
f 5//1 11//1 1//1
f 4//2 13//2 8//2
f 7//3 6//3 8//3
f 2//2 8//2 6//2
f 4//4 19//4 3//4
f 5//1 2//1 6//1
f 10//5 33//5 34//5
f 3//4 10//4 7//4
f 7//3 12//3 5//3
f 1//6 9//6 3//6
f 13//7 24//7 21//7
f 7//8 15//8 3//8
f 3//6 16//6 4//6
f 8//3 14//3 7//3
f 19//8 81//8 17//8
f 1//1 18//1 2//1
f 2//2 20//2 4//2
f 3//8 17//8 1//8
f 23//4 21//4 24//4
f 16//9 25//9 26//9
f 14//10 68//10 66//10
f 14//11 21//11 22//11
f 25//12 28//12 26//12
f 24//13 27//13 23//13
f 23//14 25//14 15//14
f 24//15 26//15 28//15
f 32//8 29//8 31//8
f 11//16 32//16 31//16
f 29//17 38//17 40//17
f 12//18 30//18 32//18
f 36//19 54//19 56//19
f 9//17 35//17 33//17
f 30//20 35//20 29//20
f 10//10 36//10 30//10
f 42//21 62//21 61//21
f 31//10 37//10 11//10
f 11//22 38//22 9//22
f 31//23 40//23 39//23
f 41//24 44//24 42//24
f 37//25 42//25 38//25
f 37//21 43//21 41//21
f 40//26 43//26 39//26
f 46//27 52//27 48//27
f 40//18 45//18 46//18
f 40//27 48//27 44//27
f 38//28 47//28 45//28
f 49//29 52//29 50//29
f 48//24 51//24 47//24
f 45//28 51//28 49//28
f 46//18 49//18 50//18
f 53//30 56//30 54//30
f 36//31 55//31 35//31
f 33//28 59//28 53//28
f 33//32 54//32 34//32
f 58//33 59//33 57//33
f 33//16 58//16 57//16
f 35//27 60//27 58//27
f 53//30 60//30 55//30
f 62//24 63//24 61//24
f 42//28 63//28 47//28
f 47//29 64//29 48//29
f 44//27 64//27 62//27
f 66//4 72//4 70//4
f 14//34 65//34 15//34
f 15//17 67//17 23//17
f 23//17 75//17 73//17
f 70//35 71//35 69//35
f 68//4 71//4 72//4
f 67//4 69//4 71//4
f 65//4 70//4 69//4
f 74//36 75//36 76//36
f 75//17 77//17 79//17
f 22//10 76//10 68//10
f 22//37 73//37 74//37
f 78//38 79//38 77//38
f 68//39 77//39 67//39
f 76//40 79//40 80//40
f 76//10 78//10 68//10
f 83//8 85//8 81//8
f 17//1 82//1 18//1
f 18//2 84//2 20//2
f 93//10 101//10 19//10
f 87//8 89//8 85//8
f 81//1 86//1 82//1
f 82//2 88//2 84//2
f 84//4 87//4 83//4
f 89//6 92//6 90//6
f 85//1 90//1 86//1
f 86//2 92//2 88//2
f 88//4 91//4 87//4
f 95//4 97//4 99//4
f 84//41 94//41 20//41
f 20//42 93//42 19//42
f 84//43 95//43 96//43
f 98//4 99//4 97//4
f 93//4 98//4 97//4
f 94//4 100//4 98//4
f 96//4 99//4 100//4
f 104//17 106//17 108//17
f 19//44 102//44 83//44
f 93//45 104//45 103//45
f 95//17 102//17 104//17
f 106//46 107//46 108//46
f 103//47 108//47 107//47
f 103//10 105//10 101//10
f 102//17 112//17 106//17
f 109//48 112//48 110//48
f 112//17 114//17 106//17
f 101//10 111//10 109//10
f 101//49 110//49 102//49
f 113//50 116//50 115//50
f 105//51 114//51 113//51
f 115//52 120//52 119//52
f 111//10 113//10 115//10
f 117//53 120//53 118//53
f 111//54 118//54 112//54
f 112//17 120//17 116//17
f 111//10 119//10 117//10
f 5//1 12//1 11//1
f 4//2 16//2 13//2
f 7//3 5//3 6//3
f 2//2 4//2 8//2
f 4//4 20//4 19//4
f 5//1 1//1 2//1
f 10//5 9//5 33//5
f 3//4 9//4 10//4
f 7//3 10//3 12//3
f 1//6 11//6 9//6
f 13//7 16//7 24//7
f 7//8 14//8 15//8
f 3//6 15//6 16//6
f 8//3 13//3 14//3
f 19//8 83//8 81//8
f 1//1 17//1 18//1
f 2//2 18//2 20//2
f 3//8 19//8 17//8
f 23//4 22//4 21//4
f 16//9 15//9 25//9
f 14//10 22//10 68//10
f 14//11 13//11 21//11
f 25//12 27//12 28//12
f 24//13 28//13 27//13
f 23//14 27//14 25//14
f 24//15 16//15 26//15
f 32//8 30//8 29//8
f 11//16 12//16 32//16
f 29//17 9//17 38//17
f 12//18 10//18 30//18
f 36//19 34//19 54//19
f 9//17 29//17 35//17
f 30//20 36//20 35//20
f 10//10 34//10 36//10
f 42//21 44//21 62//21
f 31//10 39//10 37//10
f 11//22 37//22 38//22
f 31//23 29//23 40//23
f 41//24 43//24 44//24
f 37//25 41//25 42//25
f 37//21 39//21 43//21
f 40//26 44//26 43//26
f 46//27 50//27 52//27
f 40//18 38//18 45//18
f 40//27 46//27 48//27
f 38//28 42//28 47//28
f 49//29 51//29 52//29
f 48//24 52//24 51//24
f 45//28 47//28 51//28
f 46//18 45//18 49//18
f 53//30 55//30 56//30
f 36//31 56//31 55//31
f 33//28 57//28 59//28
f 33//32 53//32 54//32
f 58//33 60//33 59//33
f 33//16 35//16 58//16
f 35//27 55//27 60//27
f 53//30 59//30 60//30
f 62//24 64//24 63//24
f 42//28 61//28 63//28
f 47//29 63//29 64//29
f 44//27 48//27 64//27
f 66//4 68//4 72//4
f 14//34 66//34 65//34
f 15//17 65//17 67//17
f 23//17 67//17 75//17
f 70//35 72//35 71//35
f 68//4 67//4 71//4
f 67//4 65//4 69//4
f 65//4 66//4 70//4
f 74//36 73//36 75//36
f 75//17 67//17 77//17
f 22//10 74//10 76//10
f 22//37 23//37 73//37
f 78//38 80//38 79//38
f 68//39 78//39 77//39
f 76//40 75//40 79//40
f 76//10 80//10 78//10
f 83//8 87//8 85//8
f 17//1 81//1 82//1
f 18//2 82//2 84//2
f 93//10 103//10 101//10
f 87//8 91//8 89//8
f 81//1 85//1 86//1
f 82//2 86//2 88//2
f 84//4 88//4 87//4
f 89//6 91//6 92//6
f 85//1 89//1 90//1
f 86//2 90//2 92//2
f 88//4 92//4 91//4
f 95//4 93//4 97//4
f 84//41 96//41 94//41
f 20//42 94//42 93//42
f 84//43 83//43 95//43
f 98//4 100//4 99//4
f 93//4 94//4 98//4
f 94//4 96//4 100//4
f 96//4 95//4 99//4
f 104//17 102//17 106//17
f 19//44 101//44 102//44
f 93//45 95//45 104//45
f 95//17 83//17 102//17
f 106//46 105//46 107//46
f 103//47 104//47 108//47
f 103//10 107//10 105//10
f 102//17 110//17 112//17
f 109//48 111//48 112//48
f 112//17 116//17 114//17
f 101//10 105//10 111//10
f 101//49 109//49 110//49
f 113//50 114//50 116//50
f 105//51 106//51 114//51
f 115//52 116//52 120//52
f 111//10 105//10 113//10
f 117//53 119//53 120//53
f 111//54 117//54 118//54
f 112//17 118//17 120//17
f 111//10 115//10 119//10
